<svg width="40" height="40" viewBox="0 0 40 40" fill="none" xmlns="http://www.w3.org/2000/svg">
<rect width="40" height="40" fill="#1E1E1E"/>
<path d="M21.9351 31.6815C20.5779 32.6318 18.7073 32.302 17.757 30.9447L3.72073 10.8989C2.7704 9.5417 3.10024 7.67107 4.45746 6.72073V6.72073C5.81467 5.7704 7.68531 6.10024 8.63564 7.45746L22.6719 27.5033C23.6222 28.8605 23.2924 30.7311 21.9351 31.6815V31.6815Z" fill="#D9D9D9"/>
<path d="M18.534 31.6063C17.1768 30.656 16.8469 28.7853 17.7973 27.4281L31.7809 7.45746C32.7312 6.10024 34.6018 5.7704 35.9591 6.72073V6.72073C37.3163 7.67106 37.6461 9.5417 36.6958 10.8989L22.7122 30.8696C21.7618 32.2268 19.8912 32.5566 18.534 31.6063V31.6063Z" fill="#D9D9D9"/>
<path d="M3 9C3 7.34315 4.34315 6 6 6H34C35.6569 6 37 7.34315 37 9V9C37 10.6569 35.6569 12 34 12H6C4.34315 12 3 10.6569 3 9V9Z" fill="#D9D9D9"/>
</svg>
