<svg id="visual" viewBox="0 0 1400 300" width="1400" height="300" xmlns="http://www.w3.org/2000/svg" xmlns:xlink="http://www.w3.org/1999/xlink" version="1.1"><rect x="0" y="0" width="1400" height="300" fill="#0d212b"></rect><path d="M0 148L38.8 142.7C77.7 137.3 155.3 126.7 233.2 125.2C311 123.7 389 131.3 466.8 129.3C544.7 127.3 622.3 115.7 700 100C777.7 84.3 855.3 64.7 933.2 57.5C1011 50.3 1089 55.7 1166.8 59.7C1244.7 63.7 1322.3 66.3 1361.2 67.7L1400 69L1400 301L1361.2 301C1322.3 301 1244.7 301 1166.8 301C1089 301 1011 301 933.2 301C855.3 301 777.7 301 700 301C622.3 301 544.7 301 466.8 301C389 301 311 301 233.2 301C155.3 301 77.7 301 38.8 301L0 301Z" fill="#01796f"></path><path d="M0 114L38.8 117.5C77.7 121 155.3 128 233.2 132.7C311 137.3 389 139.7 466.8 143.7C544.7 147.7 622.3 153.3 700 164C777.7 174.7 855.3 190.3 933.2 192.8C1011 195.3 1089 184.7 1166.8 171.7C1244.7 158.7 1322.3 143.3 1361.2 135.7L1400 128L1400 301L1361.2 301C1322.3 301 1244.7 301 1166.8 301C1089 301 1011 301 933.2 301C855.3 301 777.7 301 700 301C622.3 301 544.7 301 466.8 301C389 301 311 301 233.2 301C155.3 301 77.7 301 38.8 301L0 301Z" fill="#006870"></path><path d="M0 218L38.8 213.7C77.7 209.3 155.3 200.7 233.2 187.8C311 175 389 158 466.8 164.2C544.7 170.3 622.3 199.7 700 210.5C777.7 221.3 855.3 213.7 933.2 214.3C1011 215 1089 224 1166.8 221C1244.7 218 1322.3 203 1361.2 195.5L1400 188L1400 301L1361.2 301C1322.3 301 1244.7 301 1166.8 301C1089 301 1011 301 933.2 301C855.3 301 777.7 301 700 301C622.3 301 544.7 301 466.8 301C389 301 311 301 233.2 301C155.3 301 77.7 301 38.8 301L0 301Z" fill="#0b5869"></path><path d="M0 248L38.8 240.2C77.7 232.3 155.3 216.7 233.2 211C311 205.3 389 209.7 466.8 217.3C544.7 225 622.3 236 700 244.7C777.7 253.3 855.3 259.7 933.2 250.8C1011 242 1089 218 1166.8 211C1244.7 204 1322.3 214 1361.2 219L1400 224L1400 301L1361.2 301C1322.3 301 1244.7 301 1166.8 301C1089 301 1011 301 933.2 301C855.3 301 777.7 301 700 301C622.3 301 544.7 301 466.8 301C389 301 311 301 233.2 301C155.3 301 77.7 301 38.8 301L0 301Z" fill="#1d475c"></path></svg>