<svg id="visual" viewBox="0 0 1400 200" width="1400" height="200" xmlns="http://www.w3.org/2000/svg" xmlns:xlink="http://www.w3.org/1999/xlink" version="1.1"><path d="M0 75L38.8 81.7C77.7 88.3 155.3 101.7 233.2 108.7C311 115.7 389 116.3 466.8 112.2C544.7 108 622.3 99 700 90.7C777.7 82.3 855.3 74.7 933.2 76.3C1011 78 1089 89 1166.8 97C1244.7 105 1322.3 110 1361.2 112.5L1400 115L1400 201L1361.2 201C1322.3 201 1244.7 201 1166.8 201C1089 201 1011 201 933.2 201C855.3 201 777.7 201 700 201C622.3 201 544.7 201 466.8 201C389 201 311 201 233.2 201C155.3 201 77.7 201 38.8 201L0 201Z" fill="#01796f"></path><path d="M0 120L38.8 118C77.7 116 155.3 112 233.2 107.3C311 102.7 389 97.3 466.8 94.7C544.7 92 622.3 92 700 92.7C777.7 93.3 855.3 94.7 933.2 96.2C1011 97.7 1089 99.3 1166.8 106C1244.7 112.7 1322.3 124.3 1361.2 130.2L1400 136L1400 201L1361.2 201C1322.3 201 1244.7 201 1166.8 201C1089 201 1011 201 933.2 201C855.3 201 777.7 201 700 201C622.3 201 544.7 201 466.8 201C389 201 311 201 233.2 201C155.3 201 77.7 201 38.8 201L0 201Z" fill="#006d70"></path><path d="M0 117L38.8 118.5C77.7 120 155.3 123 233.2 127.5C311 132 389 138 466.8 136.7C544.7 135.3 622.3 126.7 700 123C777.7 119.3 855.3 120.7 933.2 126.8C1011 133 1089 144 1166.8 142.3C1244.7 140.7 1322.3 126.3 1361.2 119.2L1400 112L1400 201L1361.2 201C1322.3 201 1244.7 201 1166.8 201C1089 201 1011 201 933.2 201C855.3 201 777.7 201 700 201C622.3 201 544.7 201 466.8 201C389 201 311 201 233.2 201C155.3 201 77.7 201 38.8 201L0 201Z" fill="#00606d"></path><path d="M0 167L38.8 165.7C77.7 164.3 155.3 161.7 233.2 160.2C311 158.7 389 158.3 466.8 158.8C544.7 159.3 622.3 160.7 700 156.5C777.7 152.3 855.3 142.7 933.2 143C1011 143.3 1089 153.7 1166.8 157.8C1244.7 162 1322.3 160 1361.2 159L1400 158L1400 201L1361.2 201C1322.3 201 1244.7 201 1166.8 201C1089 201 1011 201 933.2 201C855.3 201 777.7 201 700 201C622.3 201 544.7 201 466.8 201C389 201 311 201 233.2 201C155.3 201 77.7 201 38.8 201L0 201Z" fill="#115366"></path><path d="M0 164L38.8 164.2C77.7 164.3 155.3 164.7 233.2 167C311 169.3 389 173.7 466.8 173C544.7 172.3 622.3 166.7 700 163.2C777.7 159.7 855.3 158.3 933.2 161.3C1011 164.3 1089 171.7 1166.8 176.3C1244.7 181 1322.3 183 1361.2 184L1400 185L1400 201L1361.2 201C1322.3 201 1244.7 201 1166.8 201C1089 201 1011 201 933.2 201C855.3 201 777.7 201 700 201C622.3 201 544.7 201 466.8 201C389 201 311 201 233.2 201C155.3 201 77.7 201 38.8 201L0 201Z" fill="#1d475c"></path></svg>