<svg id="visual" viewBox="0 0 1400 300" width="1400" height="300" xmlns="http://www.w3.org/2000/svg" xmlns:xlink="http://www.w3.org/1999/xlink" version="1.1"><rect x="0" y="0" width="1400" height="300" fill="#0d212b"></rect><path d="M0 70L38.8 73.5C77.7 77 155.3 84 233.2 76.8C311 69.7 389 48.3 466.8 49.2C544.7 50 622.3 73 700 78.3C777.7 83.7 855.3 71.3 933.2 68.8C1011 66.3 1089 73.7 1166.8 82C1244.7 90.3 1322.3 99.7 1361.2 104.3L1400 109L1400 301L1361.2 301C1322.3 301 1244.7 301 1166.8 301C1089 301 1011 301 933.2 301C855.3 301 777.7 301 700 301C622.3 301 544.7 301 466.8 301C389 301 311 301 233.2 301C155.3 301 77.7 301 38.8 301L0 301Z" fill="#01796f"></path><path d="M0 78L38.8 85.5C77.7 93 155.3 108 233.2 128.5C311 149 389 175 466.8 189.2C544.7 203.3 622.3 205.7 700 205.5C777.7 205.3 855.3 202.7 933.2 188.2C1011 173.7 1089 147.3 1166.8 142.8C1244.7 138.3 1322.3 155.7 1361.2 164.3L1400 173L1400 301L1361.2 301C1322.3 301 1244.7 301 1166.8 301C1089 301 1011 301 933.2 301C855.3 301 777.7 301 700 301C622.3 301 544.7 301 466.8 301C389 301 311 301 233.2 301C155.3 301 77.7 301 38.8 301L0 301Z" fill="#006870"></path><path d="M0 146L38.8 151.5C77.7 157 155.3 168 233.2 166.8C311 165.7 389 152.3 466.8 156.7C544.7 161 622.3 183 700 182.2C777.7 181.3 855.3 157.7 933.2 148C1011 138.3 1089 142.7 1166.8 154.2C1244.7 165.7 1322.3 184.3 1361.2 193.7L1400 203L1400 301L1361.2 301C1322.3 301 1244.7 301 1166.8 301C1089 301 1011 301 933.2 301C855.3 301 777.7 301 700 301C622.3 301 544.7 301 466.8 301C389 301 311 301 233.2 301C155.3 301 77.7 301 38.8 301L0 301Z" fill="#0b5869"></path><path d="M0 210L38.8 209.2C77.7 208.3 155.3 206.7 233.2 213.2C311 219.7 389 234.3 466.8 238.2C544.7 242 622.3 235 700 234.5C777.7 234 855.3 240 933.2 241.8C1011 243.7 1089 241.3 1166.8 246.8C1244.7 252.3 1322.3 265.7 1361.2 272.3L1400 279L1400 301L1361.2 301C1322.3 301 1244.7 301 1166.8 301C1089 301 1011 301 933.2 301C855.3 301 777.7 301 700 301C622.3 301 544.7 301 466.8 301C389 301 311 301 233.2 301C155.3 301 77.7 301 38.8 301L0 301Z" fill="#1d475c"></path></svg>