<svg id="visual" viewBox="0 0 1400 200" width="1400" height="200" xmlns="http://www.w3.org/2000/svg" xmlns:xlink="http://www.w3.org/1999/xlink" version="1.1"><path d="M0 89L26 86.8C52 84.7 104 80.3 155.8 77.7C207.7 75 259.3 74 311.2 72.5C363 71 415 69 466.8 74.3C518.7 79.7 570.3 92.3 622.2 93.7C674 95 726 85 777.8 78.2C829.7 71.3 881.3 67.7 933.2 75.2C985 82.7 1037 101.3 1088.8 109.3C1140.7 117.3 1192.3 114.7 1244.2 109.2C1296 103.7 1348 95.3 1374 91.2L1400 87L1400 201L1374 201C1348 201 1296 201 1244.2 201C1192.3 201 1140.7 201 1088.8 201C1037 201 985 201 933.2 201C881.3 201 829.7 201 777.8 201C726 201 674 201 622.2 201C570.3 201 518.7 201 466.8 201C415 201 363 201 311.2 201C259.3 201 207.7 201 155.8 201C104 201 52 201 26 201L0 201Z" fill="#01796f"></path><path d="M0 108L26 111C52 114 104 120 155.8 122.3C207.7 124.7 259.3 123.3 311.2 125C363 126.7 415 131.3 466.8 127.8C518.7 124.3 570.3 112.7 622.2 110.2C674 107.7 726 114.3 777.8 118.3C829.7 122.3 881.3 123.7 933.2 125.2C985 126.7 1037 128.3 1088.8 123.2C1140.7 118 1192.3 106 1244.2 99.8C1296 93.7 1348 93.3 1374 93.2L1400 93L1400 201L1374 201C1348 201 1296 201 1244.2 201C1192.3 201 1140.7 201 1088.8 201C1037 201 985 201 933.2 201C881.3 201 829.7 201 777.8 201C726 201 674 201 622.2 201C570.3 201 518.7 201 466.8 201C415 201 363 201 311.2 201C259.3 201 207.7 201 155.8 201C104 201 52 201 26 201L0 201Z" fill="#006d70"></path><path d="M0 127L26 124.8C52 122.7 104 118.3 155.8 122.3C207.7 126.3 259.3 138.7 311.2 147.3C363 156 415 161 466.8 155.5C518.7 150 570.3 134 622.2 128.3C674 122.7 726 127.3 777.8 129.2C829.7 131 881.3 130 933.2 128.5C985 127 1037 125 1088.8 122C1140.7 119 1192.3 115 1244.2 112.5C1296 110 1348 109 1374 108.5L1400 108L1400 201L1374 201C1348 201 1296 201 1244.2 201C1192.3 201 1140.7 201 1088.8 201C1037 201 985 201 933.2 201C881.3 201 829.7 201 777.8 201C726 201 674 201 622.2 201C570.3 201 518.7 201 466.8 201C415 201 363 201 311.2 201C259.3 201 207.7 201 155.8 201C104 201 52 201 26 201L0 201Z" fill="#00606d"></path><path d="M0 129L26 136.7C52 144.3 104 159.7 155.8 166.7C207.7 173.7 259.3 172.3 311.2 165C363 157.7 415 144.3 466.8 139.8C518.7 135.3 570.3 139.7 622.2 140.7C674 141.7 726 139.3 777.8 144C829.7 148.7 881.3 160.3 933.2 162.7C985 165 1037 158 1088.8 159.7C1140.7 161.3 1192.3 171.7 1244.2 176.7C1296 181.7 1348 181.3 1374 181.2L1400 181L1400 201L1374 201C1348 201 1296 201 1244.2 201C1192.3 201 1140.7 201 1088.8 201C1037 201 985 201 933.2 201C881.3 201 829.7 201 777.8 201C726 201 674 201 622.2 201C570.3 201 518.7 201 466.8 201C415 201 363 201 311.2 201C259.3 201 207.7 201 155.8 201C104 201 52 201 26 201L0 201Z" fill="#115366"></path><path d="M0 181L26 176.7C52 172.3 104 163.7 155.8 164.7C207.7 165.7 259.3 176.3 311.2 176C363 175.7 415 164.3 466.8 162.2C518.7 160 570.3 167 622.2 172.2C674 177.3 726 180.7 777.8 182C829.7 183.3 881.3 182.7 933.2 178C985 173.3 1037 164.7 1088.8 162C1140.7 159.3 1192.3 162.7 1244.2 167.2C1296 171.7 1348 177.3 1374 180.2L1400 183L1400 201L1374 201C1348 201 1296 201 1244.2 201C1192.3 201 1140.7 201 1088.8 201C1037 201 985 201 933.2 201C881.3 201 829.7 201 777.8 201C726 201 674 201 622.2 201C570.3 201 518.7 201 466.8 201C415 201 363 201 311.2 201C259.3 201 207.7 201 155.8 201C104 201 52 201 26 201L0 201Z" fill="#1d475c"></path></svg>